<?xml version="1.0" encoding="utf-8"?>
<!-- Generator: Adobe Illustrator 22.0.1, SVG Export Plug-In . SVG Version: 6.00 Build 0)  -->
<svg version="1.1" id="Layer_1" xmlns="http://www.w3.org/2000/svg" xmlns:xlink="http://www.w3.org/1999/xlink" x="0px" y="0px"
	 viewBox="0 0 100 100" style="enable-background:new 0 0 100 100;" xml:space="preserve">
<g>
	<path d="M80.6,27.6C75,18,64.7,12,53.6,12h-8.5c-11.1,0-21.4,6-27,15.6l-4.3,7.4c-5.5,9.6-5.5,21.5,0,31.1l4.3,7.4
		C23.7,83,34,89,45.1,89h8.5c11.1,0,21.4-6,27-15.6l4.3-7.4c5.5-9.6,5.5-21.5,0-31.1L80.6,27.6z M81.4,64.1l-4.3,7.4
		C72.3,79.8,63.3,85,53.6,85h-8.5c-9.7,0-18.7-5.2-23.5-13.6l-4.3-7.4c-4.8-8.4-4.8-18.8,0-27.1l4.3-7.4C26.4,21.2,35.5,16,45.1,16
		h8.5c9.7,0,18.7,5.2,23.5,13.6l4.3,7.4C86.2,45.3,86.2,55.7,81.4,64.1z"/>
	<path d="M67.4,52h-8.5c-6,0-10.9-4.9-10.9-10.9V25.5c0-1.1-0.9-2-2-2s-2,0.9-2,2v15.6C44,49.3,50.7,56,58.9,56h8.5c1.1,0,2-0.9,2-2
		S68.5,52,67.4,52z"/>
</g>
</svg>
